<?xml version="1.0" encoding="UTF-8"?>
<svg id="Layer_1" xmlns="http://www.w3.org/2000/svg" version="1.1" viewBox="0 0 52 75">
  <!-- Generator: Adobe Illustrator 29.3.1, SVG Export Plug-In . SVG Version: 2.1.0 Build 151)  -->
  <defs>
    <style>
      .st0 {
        fill: #FFFFFF;
      }
    </style>
  </defs>
  <path class="st0" d="M-.01,14.94v25.86c0,6.61,1.36,12.51,4.04,17.52,2.15,4.02,5.14,7.48,8.9,10.28,6.41,4.78,13.09,6.03,13.09,6.03,0,0,6.63-1.25,13.04-6.03,3.76-2.8,6.75-6.26,8.9-10.28,2.68-5.01,4.04-10.91,4.04-17.52V14.94H-.01ZM39.07,21.91c.32-.39.91-.82,1.92-.82,1.82,0,2.38,1.58,4,1.19v8.55c.12.19.34.3.62.3v-8.28h.53v9.42c-.72-.02-1.46-.19-2.14-.43-.25-.09-.51-.19-.75-.3-.06.11-.02.35.19.48.93.49,2.23.83,3.25.83v-8.83h.53v10.24h-6.49c-.18,0-.34-.27-.39-.44h6.53s-.27-.53-.27-.53c-3.14,0-4.39-1.33-5.84-1.35-.69.02-1.32.38-1.69.65v-10.68ZM39.72,33.82c0,.24-.19.43-.43.43h-1.04c-.24,0-.43-.19-.43-.43h1.9ZM30.86,24.02v8.83c1.01,0,2.32-.34,3.25-.83.22-.13.26-.37.19-.48-.24.11-.5.21-.75.3-.68.24-1.42.41-2.14.43v-9.42h.53v8.28c.28,0,.5-.11.63-.3v-8.55c1.61.39,2.16-1.19,3.98-1.19,1.01,0,1.6.43,1.92.82v10.68c-.37-.27-1-.63-1.69-.65-1.45.02-2.7,1.35-5.84,1.35l-.27.53h6.53c-.05.18-.21.44-.39.44h-6.49v-10.24s.53,0,.53,0ZM21.42,53.36c.66,1.46.74,2.93.06,4.1-.68,1.17-1.99,1.84-3.59,2-.65.9-1.44,1.56-2.31,1.89,0,.66-.54,1.2-1.21,1.2-.48,0-.89-.28-1.09-.68.2.06.4.1.61.12.25.03.48-.17.48-.42-.2,0-.4-.02-.59-.05-.02,0-.04,0-.06-.01-.04,0-.09-.02-.13-.03-.06-.01-.13-.03-.19-.05,0,0-.01,0-.02,0-.07-.02-.14-.04-.21-.07,0,0,0,0,0,0-.88-.32-1.67-.98-2.32-1.89-1.6-.16-2.91-.83-3.58-2-.68-1.17-.6-2.64.06-4.1-.57-1.25-.7-2.51-.31-3.58-.2-.22-.33-.51-.33-.83,0-.67.54-1.21,1.21-1.21.25,0,.49.08.68.21.64-.38,1.41-.61,2.28-.7.93-1.31,2.17-2.1,3.52-2.1s2.59.8,3.52,2.11c.9.09,1.71.34,2.37.75.21-.17.47-.27.76-.27.67,0,1.21.54,1.21,1.21,0,.39-.18.73-.46.95.34,1.04.2,2.25-.35,3.46ZM50.75,40.8c0,6.39-1.3,12.07-3.87,16.89-2.05,3.85-4.92,7.17-8.51,9.86-5.59,4.19-11.27,5.56-12.35,5.79v-32.71H1.24v-24.42h24.78v24.42h24.73v.18Z"/>
  <g>
    <path class="st0" d="M14.37,59.07c-.81.24-1.61.38-2.37.42-.12-.13-.24-.28-.36-.43.62,0,1.28-.09,1.95-.24-.62-.23-1.25-.53-1.86-.88-.61-.35-1.18-.75-1.69-1.17.63,2.05,1.8,3.59,3.21,4.14.18-.45.61-.77,1.12-.77s.95.32,1.12.77c.67-.26,1.29-.74,1.82-1.4-.05,0-.11,0-.16,0-.88,0-1.82-.14-2.78-.43Z"/>
    <path class="st0" d="M52.01,1.29v-.63c-.43-.19-.94-.29-1.5-.29-1.2,0-2.27.69-3.09,2-.47.76-.73,1.5-.83,1.81-1.08-2.18-2.1-3.81-4.31-3.81-1.2,0-2.27.69-3.09,2-.47.76-.73,1.5-.83,1.81-1.08-2.18-2.1-3.81-4.31-3.81-1.2,0-2.27.69-3.09,2-.47.76-.73,1.5-.83,1.81-1.08-2.18-2.1-3.81-4.31-3.81-1.2,0-2.27.69-3.09,2-.47.76-.73,1.5-.83,1.81-1.08-2.18-2.1-3.81-4.31-3.81-1.2,0-2.27.69-3.09,2-.47.76-.73,1.5-.83,1.81C12.59,2,11.57.37,9.36.37c-1.2,0-2.27.69-3.09,2-.47.76-.73,1.5-.83,1.81C4.36,2,3.34.37,1.13.37.73.37.35.45-.01.6v.83s.46-.18.8.2v.98s0,0,0,0v8.77c-.41-.03-.8-.24-.8-.24v1.73c.3.08.63.12.98.12,1.2,0,2.27-.69,3.09-2,.47-.75.73-1.5.83-1.81,1.08,2.18,2.1,3.81,4.31,3.81,1.2,0,2.27-.69,3.09-2,.47-.75.73-1.5.83-1.81,1.08,2.18,2.1,3.81,4.31,3.81,1.2,0,2.27-.69,3.09-2,.47-.75.73-1.5.83-1.81,1.08,2.18,2.1,3.81,4.31,3.81,1.2,0,2.27-.69,3.09-2,.47-.75.73-1.5.83-1.81,1.08,2.18,2.1,3.81,4.31,3.81,1.2,0,2.27-.69,3.09-2,.47-.75.73-1.5.83-1.81,1.08,2.18,2.1,3.81,4.31,3.81,1.2,0,2.27-.69,3.09-2,.47-.75.73-1.5.83-1.81,1.08,2.18,2.1,3.81,4.31,3.81.58,0,1.15-.16,1.66-.47v-1.5s-.49.4-.87.4c-.14,0-.28-.04-.42-.12V2.05c.22-.18,1.29-.76,1.29-.76ZM49.35,3.76c.13-.23.26-.45.4-.64v-.08c0-1.06.42-1.41.42-1.41v.96s0,0,0,0v8.25c-.28-.3-.55-.7-.82-1.14V3.76ZM48.11,6.65c.08-.23.17-.49.27-.75v-1.64c0-1.06.42-1.41.42-1.41v2.03s0,0,0,0v3.81c-.3-.58-.58-1.17-.81-1.66l.13-.38ZM41.12,3.76c.13-.23.26-.45.4-.64v-.08c0-1.06.42-1.41.42-1.41v.98s0,0,0,0v8.31s-.47-.56-.82-1.17V3.76ZM39.88,6.65c.08-.23.17-.49.27-.75v-1.64c0-1.06.42-1.41.42-1.41v2.03s0,0,0,0v3.81c-.28-.55-.56-1.13-.81-1.66l.13-.38ZM32.89,3.76c.13-.23.26-.45.4-.64v-.08c0-1.06.42-1.41.42-1.41v.98s0,0,0,0v8.31s-.47-.56-.82-1.17V3.76ZM31.65,6.65c.08-.23.17-.49.27-.75v-1.64c0-1.06.42-1.41.42-1.41v2.03h0v3.81c-.28-.55-.56-1.13-.81-1.66l.13-.38ZM24.66,3.76c.13-.23.26-.45.4-.64v-.08c0-1.06.42-1.41.42-1.41v.98s0,0,0,0v8.31s-.47-.56-.82-1.17V3.76ZM23.42,6.65c.08-.23.17-.49.27-.75v-1.64c0-1.06.42-1.41.42-1.41v2.03h0v3.81c-.28-.55-.56-1.13-.81-1.66l.13-.38ZM16.43,3.76c.13-.23.26-.45.4-.64v-.08c0-1.06.42-1.41.42-1.41v.98s0,0,0,0v8.31s-.47-.56-.82-1.17V3.76ZM15.18,6.65c.08-.23.17-.49.27-.75v-1.64c0-1.06.42-1.41.42-1.41v2.03h0v3.81c-.28-.55-.56-1.13-.81-1.66l.13-.38ZM8.2,3.76c.13-.23.26-.45.4-.64v-.08c0-1.06.42-1.41.42-1.41v.98s0,0,0,0v8.31s-.47-.56-.82-1.17V3.76ZM6.95,6.65c.08-.23.17-.49.27-.75v-1.64c0-1.06.42-1.41.42-1.41v2.03h0v3.81c-.28-.55-.56-1.13-.81-1.66l.13-.38ZM1.64,12.09s-.3.19-.69.19c-.25,0-.55-.08-.55-.08v-.44c.19.06.46.13.77.13.18,0,.34-.02.49-.05l-.02.24ZM2.16,9.72c-.26.58-.53,1.12-.82,1.42V2.5c.28.34.55.76.82,1.22v6ZM3.38,6.71c-.07.21-.15.44-.24.68v1.75c0,1.06-.42,1.41-.42,1.41v-2.13s0,0,0,0v-3.67c.26.51.53,1.05.78,1.58l-.13.38ZM9.94,12.15c-.2.07-.4.11-.71.11C5.78,12.26,3.77,1.56.98,1.1v-.22c.12,0,.25-.01.39-.01,3.81,0,5.49,11.06,8.56,11.06v.21ZM10.39,9.56c-.27.49-.55.9-.82,1.17V2.5c.28.34.55.76.82,1.22v5.83ZM11.61,6.71c-.07.21-.15.44-.24.68v1.75c0,1.06-.42,1.41-.42,1.41v-2.13s0,0,0,0v-3.67c.26.51.53,1.05.78,1.58l-.13.38ZM18.18,12.15c-.2.07-.4.11-.71.11-3.45,0-5.46-10.7-8.25-11.16v-.22c.12,0,.25-.01.39-.01,3.81,0,5.49,11.06,8.56,11.06v.21ZM18.62,9.56c-.27.49-.55.9-.82,1.17V2.5c.28.34.55.76.82,1.22v5.83ZM19.84,6.71c-.07.21-.15.44-.24.68v1.75c0,1.06-.42,1.41-.42,1.41v-2.13s0,0,0,0v-3.67c.26.51.53,1.05.79,1.58l-.13.38ZM26.41,12.15c-.2.07-.4.11-.71.11-3.45,0-5.46-10.7-8.25-11.16v-.22c.12,0,.25-.01.39-.01,3.81,0,5.49,11.06,8.56,11.06v.21ZM26.85,9.56c-.27.49-.55.9-.82,1.17V2.5c.28.34.55.76.82,1.22v5.83ZM28.07,6.71c-.07.21-.15.44-.24.68v1.75c0,1.06-.42,1.41-.42,1.41v-2.13s0,0,0,0v-3.67c.26.51.53,1.05.78,1.58l-.13.38ZM34.65,12.15c-.2.07-.4.11-.71.11-3.45,0-5.46-10.7-8.25-11.16v-.22c.12,0,.25-.01.39-.01,3.81,0,5.49,11.06,8.56,11.06v.21ZM35.08,9.56c-.27.49-.55.9-.82,1.17V2.5c.28.34.55.76.82,1.22v5.83ZM36.3,6.71c-.07.21-.15.44-.24.68v1.75c0,1.06-.42,1.41-.42,1.41v-2.13s0,0,0,0v-3.67c.26.51.53,1.05.78,1.58l-.13.38ZM42.89,12.15c-.2.07-.4.11-.71.11-3.45,0-5.46-10.7-8.25-11.16v-.22c.12,0,.25-.01.39-.01,3.81,0,5.49,11.06,8.56,11.06v.21ZM43.31,9.56c-.27.49-.55.9-.82,1.17V2.5c.28.34.55.76.82,1.22v5.83ZM44.53,6.71c-.07.21-.15.44-.24.68v1.75c0,1.06-.42,1.41-.42,1.41v-2.13s0,0,0,0v-3.67c.26.51.53,1.05.78,1.58l-.13.38ZM51.12,11.93v.21c-.2.07-.4.11-.71.11-3.45,0-5.46-10.7-8.25-11.16v-.22c.12,0,.25-.01.39-.01,3.81,0,5.49,11.06,8.56,11.06ZM50.66,1.14v-.26s.09-.03.22-.03c.3,0,.65.17.65.17l-.53.27h0c-.11-.07-.22-.12-.34-.15Z"/>
    <path class="st0" d="M16.74,47.23c.12.13.24.28.36.43-.62,0-1.28.09-1.95.24.62.23,1.25.53,1.86.88.61.35,1.18.75,1.69,1.17-.78-2.57-2.43-4.35-4.33-4.35-1.11,0-2.13.6-2.94,1.62.92-.02,1.92.12,2.94.42.81-.24,1.61-.38,2.37-.42Z"/>
    <path class="st0" d="M7.58,53.88c-.47,1.21-.48,2.4.07,3.36.55.96,1.59,1.54,2.87,1.74-.48-.79-.85-1.72-1.1-2.76-.77-.73-1.39-1.53-1.84-2.34Z"/>
    <path class="st0" d="M19.31,56.21c-.2.81-.47,1.57-.81,2.24-.18.04-.36.07-.56.1.77-1.38,1.24-3.2,1.24-5.19,0-.64-.05-1.26-.14-1.85.19.2.37.4.53.61.04.4.06.82.06,1.24,0,.71-.06,1.4-.17,2.05.61-.66,1.1-1.35,1.45-2.05-.75-1.53-2.2-3.06-4.14-4.18-.8-.46-1.61-.81-2.41-1.06-.8.25-1.62.6-2.41,1.06-.55.32-1.07.67-1.54,1.05.08-.26.16-.52.25-.76.33-.24.69-.47,1.06-.68.61-.35,1.24-.65,1.86-.88-.88-.2-1.73-.28-2.5-.23,0,0,0,0,0,0-.19.01-.38.03-.57.06,0,0,0,0,0,0-.61.09-1.16.28-1.63.54.13.19.2.42.2.67,0,.67-.54,1.21-1.21,1.21-.02,0-.03,0-.05,0,.05-.16.12-.31.2-.45.07-.12.15-.24.25-.35-.18-.15-.46-.12-.6.07-.01.02-.03.04-.04.06-.55.96-.54,2.14-.07,3.35.45-.81,1.07-1.6,1.84-2.33.2-.81.47-1.57.81-2.24.18-.04.36-.07.56-.1-.77,1.38-1.24,3.2-1.24,5.19,0,.64.05,1.26.14,1.85-.19-.2-.37-.4-.53-.6-.04-.41-.06-.83-.06-1.25,0-.71.06-1.4.17-2.05-.61.66-1.1,1.35-1.45,2.05.75,1.53,2.2,3.06,4.14,4.18.8.46,1.61.81,2.41,1.06.8-.25,1.62-.6,2.41-1.06.55-.32,1.07-.67,1.54-1.05-.08.26-.16.52-.25.76-.33.24-.69.47-1.06.68-.61.35-1.24.65-1.86.88.88.2,1.73.28,2.5.23,0,0,0,0,0,0,.19-.01.38-.03.57-.06,0,0,0,0,0,0,1.28-.2,2.32-.78,2.87-1.74.55-.96.54-2.14.07-3.35-.45.81-1.07,1.6-1.84,2.33ZM14.37,49.49c.58,0,1.05.47,1.05,1.05s-.47,1.05-1.05,1.05-1.05-.47-1.05-1.05.47-1.05,1.05-1.05ZM10.58,52.44c0-.58.47-1.05,1.05-1.05s1.05.47,1.05,1.05-.47,1.05-1.05,1.05-1.05-.47-1.05-1.05ZM12.66,56.74c-.58,0-1.05-.47-1.05-1.05s.47-1.05,1.05-1.05,1.05.47,1.05,1.05-.47,1.05-1.05,1.05ZM14.37,54.41c-.58,0-1.05-.47-1.05-1.05s.47-1.05,1.05-1.05,1.05.47,1.05,1.05-.47,1.05-1.05,1.05ZM16.07,56.74c-.58,0-1.05-.47-1.05-1.05s.47-1.05,1.05-1.05,1.05.47,1.05,1.05-.47,1.05-1.05,1.05ZM17.1,53.49c-.58,0-1.05-.47-1.05-1.05s.47-1.05,1.05-1.05,1.05.47,1.05,1.05-.47,1.05-1.05,1.05Z"/>
    <path class="st0" d="M8.65,25.33c.62-.27,1.22-.31,1.81-.31v-2.88c.12-.09.25-.17.37-.25v3.14c.62,0,1.19,0,1.81.05v-3.18c.12.08.24.16.36.24v2.96c.5.04.91.09,1.17.13.12-.39.36-.7.63-.96v-1.91l.43-.12v-1.17c-.22-.09-.44-.17-.66-.23v.71l-.31-.1v-.7c-.19-.04-.37-.08-.56-.11v.69l-.31-.04v-.69c-.11,0-.21-.02-.32-.02v-.39c-.24-.06-.48-.1-.72-.12v.69l-.31-.04v-.67c-.22-.01-.43-.01-.65,0v.67l-.31.04v-.69c-.23.03-.46.07-.68.12v.38c-.12,0-.24.01-.36.03v.69l-.31.04v-.69c-.19.03-.37.07-.56.11v.69l-.31.1v-.7c-.21.06-.41.14-.62.23v1.17l.42.12v2.97Z"/>
    <path class="st0" d="M30.12,52.8c0,.28-.09.64-.16.89l-.95-1.01s-.47.15-.7.45c-.24.31-.2.69-.2.69,0,0,.96,1.26,1.18,1.47.17.16.43.29.56.35.04.19.14.71.14,1.07,0,.26-.06.54-.11.74l-.86-.75s-.58.27-.79.65c-.21.38-.1.85-.1.85,0,0,.81.42,1.12.6.23.13.59.62.65.72v2.87h2.79v-1.18c.07-.13.34-.58.55-.77.25-.23,1.24-.87,1.24-.87,0,0-.06-.41-.36-.81-.29-.37-.84-.36-.84-.36,0,0-.41.59-1.43,1.41-.12-.15-.09-.36.05-.48.29-.25.54-.52.77-.82v-.79c.21-.35.73-1.18.9-1.36.11-.12.33-.22.53-.32.16-.07.3-.15.4-.22.21-.17.79-1.08.79-1.08,0,0,0-.37-.34-.74-.33-.36-.78-.44-.78-.44,0,0-.48.81-.77,1.12-.16.18-.77.75-1.56,1.16h0c-.09-.17-.03-.37.13-.47.27-.17.5-.35.71-.55l.03-1.26c.36-.42.78-.68,1.26-.79l-.06-.4.59-.55s-.14-.5-.46-.81c-.33-.32-.92-.35-.92-.35,0,0-.38.87-1.25,1.45-.11-.15-.09-.36.05-.48.29-.26.55-.55.78-.89,0-.38.07-.66.13-.89.05-.17.09-.32.09-.45v-1.82s-.6-.29-1.49-.29-1.34.38-1.34.38v1.64l-1.16-1.23s-.49.15-.75.37c-.27.24-.36.73-.36.73l2.19,2.69c.03.13.12.54.12.93ZM33.45,58.68c.34.09.56.32.69.74l-.33.1c-.23-.14-.38-.32-.47-.55l.11-.3ZM34.29,53.95c.35.09.54.3.69.68l-.26.14c-.26-.11-.43-.26-.51-.49l.08-.33ZM33.33,51.01c.4.16.66.34.81.72l-.27.16c-.31-.14-.51-.35-.64-.62l.1-.25ZM32.38,47.9l-.1.25c-.51.13-1.03.16-1.57,0l-.1-.25c.62-.23,1.19-.23,1.78,0Z"/>
    <path class="st0" d="M21.04,49.42c-.14-.19-.41-.22-.6-.07.09.11.17.23.25.35.08.14.15.29.2.44-.61-.06-1.08-.58-1.08-1.2,0-.22.06-.42.16-.59-.5-.31-1.09-.51-1.76-.62.48.79.85,1.72,1.1,2.76.77.73,1.39,1.53,1.84,2.34.47-1.21.48-2.4-.07-3.36-.01-.02-.03-.04-.04-.06Z"/>
    <path class="st0" d="M40.17,54.41c.24.3.53.61.53,1.07,0,.6-.36.92-.36.92l-.32-.43-.26.5-.26-.41-.31.16s-1.13-.53-2.3-1.85c-.17.95-1.45,2.36-1.45,3.11,0,.26.12.44.12.44,0,0,.12-.27.37-.18,0,0-.11.26-.11.74,0,.9.82,1.9.82,3.13,0,.47-.11.75-.11.75h2.53s.32-.35.32-.63c0-.22-.26-.42-.45-.54.22-.3.41-.66.55-1.05.09-.28.17-.63.17-1.01,0-1.02-1.26-1.96-1.28-1.97.11-.15.33-.18.47-.05.41.37,1.14,1.15,1.14,2.02,0,.53-.14,1.01-.27,1.34.31.67.26,1.89.26,1.89h2.88c0-.69-.56-1.06-.87-1.17.14-.3.24-.53.24-.53.1.08.21.28.21.28h.07s.2-.37.2-1.76c0-1.03-.35-1.92-.59-2.41-.29.75-.75,1.31-1.03,1.61-.13.14-.35.13-.47-.02.01-.01,1.44-1.24,1.44-3.03,0-1.06-1.15-3.28-1.15-3.28.17-.09.37-.02.46.15.32.66,1.04,2.24,1.04,3.13,0,.32.24.54.42.54v.39c.26,0,.35-.22.35-.22v.52c.23,0,.37-.26.37-.26v.45s.45-.13.45-.8c0-.94-.52-1.41-.52-1.41-.1-.27-1.21-2.87-1.66-3.3.12-.03.27-.05.27-.05,0,0-.82-1.76-1.83-1.98-.28-1.32.87-1.19.87-1.19,0-.21-.2-.4-.2-.4l.23-.2c-.23-.28.02-.48.02-.64s-.22-.3-.22-.3c-.3,0-.58-.17-.58-.17,0,0,.01-.11.01-.19,0-.26-.17-.5-.39-.5-.19,0-.3.15-.33.21-.59-.09-1.22.02-1.22.02-.11-.13-.33-.35-.65-.35s-.69.26-.69.83c0,.37.17.71.27.87-.54.72-.29,1.84-.2,2.18-.27.28-1.21,1.37-1.21,2.96,0,.78.37,1.19.37,1.19.09-.11.2-.19.31-.23,0,0,.87,1.51,2.58,2.5l.24-.25.26.36.24-.44.33.37c.02-.07.05-.24.05-.34,0-.35-.26-.66-.45-.9-.56-.69-1.47-1.82-1.16-3.28.04-.19.24-.3.42-.24-.49,1.45.41,2.57,1.01,3.3ZM37.9,46.25s-.05-.03-.08-.03c-.15,0-.13.26-.13.26-.14,0-.19-.09-.19-.22,0-.15.12-.33.33-.33s.37.15.48.31c-.1.12-.28.1-.4,0ZM39.06,46.61s.14-.23.27-.23c.2,0,.45.19.45.19-.07.06-.1.12-.12.2h-.31c-.21,0-.29-.16-.29-.16Z"/>
    <path class="st0" d="M21.79,27.18c-.5,0-.86-.17-.86-.17,0-.22.22-.49.44-.49s.4.18,1.09.18c.25,0,.54-.05.82-.14.13-.04.19-.12.25-.2.17-.23.34-.58.34-1.11,0-1.09-.81-2.07-1.53-2.94-.5-.6-.97-1.17-.97-1.58,0-.46.55-.55.57-.55l.05-.26c-.27-.16-.36-.36-.27-.66l-.18-.17c-.05.02-1.31.47-1.31,1.69,0,1.08,1.47,2.98,1.72,3.33-.03.17,0,.37.12.49-.09.07-.13.25-.06.34-.12.02-.28.15-.31.26-.07-.12-.28-.22-.44-.19-.29-.22-.86-.68-1.22-.93-.38-.27-.87-.27-1.07-.26,0,0-.51-.72-1.52-.72-.74,0-1.91.91-2.54,1.55-.28.3-.49.64-.49,1.08,0,.36.36.73.74,1.13.45.47.96,1.01.96,1.65h.08c.16-.21.28-.51.28-.99,0-.94-.66-1.86-.66-1.86.15-.11.37-.07.47.1.22.37.54,1.05.54,1.76,0,1.08-.84,1.71-.84,1.71h-.08c0-1.2-.56-1.69-.99-2.14-.4-.42-.77-.81-.83-1.26-.66.83-.92,2.38-.81,3.52v.16s-.14.03-.14.03c-.92.14-2.47-.22-3.05-.22-.69,0-1.18.2-1.4.32l-.23.12-.02-.26c0-2,.44-3.54,1.59-4.12-3.09,0-4.34,4.75-4.77,6.03-.4,1.2-1.85,1.53-1.85,2.38,0,.38.37.6.37.6l.07-.02c-.05-.29-.02-.57.09-.8l.1.05c-.06.26.13.92.55,1.12l.07-.03c-.27-.74-.14-1.06-.14-1.06l.08-.02c.11.23.28.38.46.39l.04-.04s-.14-.41-.14-.83c0-.59.87-1.32,1.44-2.9h.1c0,2.01-.85,3.15-.85,3.56,0,.08.02.14.04.19-.12.07-.24.18-.24.31,0,.1.04.18.07.24-.08.21-.25.6-.25.88,0,.23.06.45.06.61,0,.37-.15.64-.15.98s.31.59.31.59h2.57s.19-.23.19-.6c0-.45-.23-.58-.42-.68-.17-.09-.29-.16-.29-.49,0-1.31,1.08-2.05,1.08-2.75v-.33s.61.33,1.4.33c1.16-.02,2.21-.3,3.11-.83.09.28.21.53.37.76-.06.08-.12.19-.12.34,0,.19.1.44.15.54-.06.32-.26,1.46-.26,1.63,0,.19.12.29.12.51,0,.3-.29.5-.29.91s.29.62.31.63l.04.03h2.39s.18-.3.18-.58c0-.22-.15-.37-.29-.51-.18-.18-.25-.37-.25-.76,0-.32.14-.79.26-1.12,0,0,0,0,0,0,0-.02.01-.04.02-.06.13-.4.26-.8.26-1.22v-.65c0-1.41.04-1.96,1.65-3.05.65-.44,1.02-.48,1.49-.79.57-.37.78-.91,1.3-.91s1.29.6,1.29.6l.23-.08c.06-.3.03-.57-.08-.81.95-.02,1.95-.42,2.46-1.25l-.15-.15s-.76.95-2.44.95ZM19.76,25.67c-.24,0-.28-.26-.28-.26l-.3.2s.08-.45.49-.45.45.36.45.36c0,0-.13.15-.36.15Z"/>
    <path class="st0" d="M11.13,25.39c-2.07,0-2.36,2.8-2.36,3.83.3-.12.75-.25,1.32-.25.92,0,1.42.24,2.84.24-.08-1.24.22-2.82.96-3.67-.54-.07-1.77-.16-2.75-.16Z"/>
    <path class="st0" d="M18.46,36.24c-.23-.18-.47-.37-.55-.78-.07-.38-.29-1.78-.33-2.06.02-.05.05-.13.05-.24,0-.16-.15-.27-.28-.32l.04-.26s-.52-.91-.52-1.83c0-.02,0-.04,0-.06-.54.56-.51,1.02-.51,1.98v.66c0,.47-.15.92-.28,1.33-.07.21-.14.4-.18.58.08.31.13.54.13.6v.29c0,.16.15.28.24.34v.46c0,.33.29.64.29.64h2.15s.2-.24.2-.58c0-.38-.24-.57-.48-.76Z"/>
    <path class="st0" d="M10.53,35.72c0-.37-.46-.81-.46-1.06v-1.25c-.52-.01-.89-.1-1.11-.17,0,.49-.62,1.18-.73,1.43.14.41.25.81.25.95v.5c0,.18.14.28.25.33-.02.14-.06.33-.06.53,0,.34.35.62.35.62h2.23s.16-.3.16-.6c0-.52-.88-1-.88-1.27Z"/>
  </g>
</svg>